<?xml version="1.0" encoding="UTF-8" standalone="no"?>
<!-- Created with Inkscape (http://www.inkscape.org/) -->

<svg
   width="500"
   height="500"
   viewBox="0 0 132.29166 132.29167"
   version="1.1"
   id="svg5"
   xml:space="preserve"
   xmlns="http://www.w3.org/2000/svg"
   xmlns:svg="http://www.w3.org/2000/svg"><defs
     id="defs2" /><g
     id="layer1"><g
       id="g3303"
       style="display:inline"><path
         style="display:inline;fill:#e1cce2;stroke-width:0.0689019"
         d="m 63.010798,125.62946 c -0.721896,-0.0309 -2.91505,-0.22179 -3.892958,-0.33886 C 43.76029,123.45205 29.847443,115.80594 20.014944,103.80073 12.84883,95.05111 8.2494019,84.206783 6.9958598,73.104928 6.9380938,72.593331 6.8765191,72.050729 6.8590265,71.899145 6.6896968,70.431789 6.6492648,69.309191 6.650573,66.111384 6.6521074,62.360876 6.697093,61.551695 7.0658766,58.641111 8.5334204,47.058675 13.296155,36.324993 21.009669,27.216255 23.151259,24.687294 25.977959,22.013734 29.248861,19.42343 37.672007,12.752945 47.78084,8.4739588 58.359919,7.1009573 62.959585,6.5039909 68.203221,6.4515217 72.752571,6.9569406 83.18443,8.1158866 92.93042,11.911818 101.38916,18.110502 c 2.8617,2.097092 5.57632,4.500239 8.10664,7.1765 8.93661,9.452021 14.517,21.600813 15.87207,34.554308 0.43866,4.193328 0.41114,8.995059 -0.0751,13.113908 -0.52395,4.43769 -1.43407,8.301096 -3.09416,13.134406 -1.03028,2.999631 -1.737,4.671322 -3.05995,7.238015 -6.14766,11.927321 -16.19348,21.502051 -28.394793,27.063251 -6.622362,3.01839 -13.748225,4.77818 -21.118435,5.21538 -1.044228,0.0619 -5.355597,0.0771 -6.614584,0.0232 z"
         id="path3335" /><path
         style="display:inline;fill:#d9c3de;stroke-width:0.0689019"
         d="M 63.665366,125.63673 C 39.786227,124.94718 17.466577,108.32159 9.8898975,85.673571 1.5728822,62.548873 9.4474498,34.65837 29.000733,19.647748 47.815511,4.1413365 76.317188,2.371708 96.998085,15.196087 116.85778,26.943069 128.45578,50.948015 125.16963,73.8188 c -2.68903,22.494228 -19.36162,42.43208 -41.003731,49.08924 -6.607407,2.12614 -13.573945,2.95049 -20.500533,2.72869 z M 108.82009,37.321801 c 5.86396,-4.917795 -8.939171,-11.811137 -5.4247,-2.885625 1.03216,1.77609 3.21917,3.703955 5.4247,2.885625 z M 98.498645,30.464667 C 106.50834,29.0865 99.812509,21.060894 95.574162,19.215319 87.040335,13.899021 77.144384,10.165117 67.007109,10.000596 c 6.159637,2.343402 12.763216,4.288698 17.985436,8.433222 1.570222,5.063487 -7.291541,2.391833 -8.837878,-0.780758 -3.401765,-4.219995 -11.976139,-4.097293 -14.82335,-1.932735 2.596031,4.951753 7.79164,6.133904 12.910535,5.744082 6.746053,0.734199 14.030459,0.234908 20.236454,3.301254 2.611001,3.727393 -10.887243,5.002273 -3.183268,5.611915 2.37761,0.340569 4.818656,0.354958 7.203607,0.08709 z"
         id="path3333" /><path
         style="fill:#ccb4d5;stroke-width:0.0689019"
         d="M 64.216581,125.66045 C 40.287446,125.18526 17.814422,108.71305 10.046976,86.098831 1.5030476,62.894129 9.3152236,34.761826 29.007705,19.66054 47.398321,4.558437 75.059421,2.3717681 95.611406,14.402837 c 20.009344,11.085632 32.169644,34.46132 29.792334,57.212664 -1.83027,22.446864 -17.59275,42.916179 -38.807406,50.443179 -7.139206,2.65 -14.778799,3.79037 -22.379753,3.60177 z m -5.443251,-1.85623 c -9.265876,-3.56323 -18.751463,-7.03567 -26.772855,-13.00756 -2.154507,-1.18086 -8.037155,-5.45551 -7.974486,-4.71804 9.330315,9.54109 21.936131,15.17415 34.919604,17.79789 l -0.172255,-0.0727 z m 50.14491,-86.494077 c 5.51101,-4.814048 -8.69816,-11.816834 -5.62623,-3.031441 1.01362,1.926248 3.30322,3.910629 5.62623,3.031441 z M 97.629454,30.624698 c 8.768426,-0.347384 3.169106,-9.328276 -1.697235,-11.24626 -9.00162,-5.592059 -19.542474,-9.720749 -30.280616,-9.322981 -8.477125,0.05487 -3.939091,9.153915 1.120314,10.946774 9.100929,5.75061 19.969779,9.989127 30.857537,9.622467 z"
         id="path3331" /><path
         style="fill:#c6aad0;stroke-width:0.0689019"
         d="M 63.975425,125.62988 C 40.577377,125.07948 18.581486,109.23148 10.503829,87.297997 1.6617389,64.745012 8.3095044,36.825737 27.127053,21.371337 c 6.430024,1.322614 12.932186,0.209283 19.348991,-0.446615 6.896737,-0.100315 13.960899,-0.298271 20.760026,0.40358 6.315684,4.136474 13.464599,6.922417 20.820573,8.550419 -5.110543,2.563209 -11.210908,4.239092 -14.864566,8.889155 1.983533,4.557469 10.160335,2.576945 14.623409,2.067044 7.402256,-1.595577 14.555644,2.298644 21.996034,1.790374 6.58808,-0.631856 5.51869,7.277585 7.08995,11.401969 1.01715,-3.218155 5.15009,4.623098 6.30575,6.634277 1.29839,5.597344 -2.70552,10.51688 -4.04586,15.722283 -2.41022,7.474547 -14.62268,-0.148211 -7.91697,-5.105477 2.66605,-1.719452 8.77835,-7.352586 6.23267,-8.559982 -4.03823,4.43549 -9.86878,8.121455 -10.91282,14.486213 1.6017,3.525812 8.09862,7.996733 10.9031,3.053645 2.58749,-1.292295 7.18049,-9.076462 7.81138,-7.556644 -2.26822,23.037521 -19.29142,43.644902 -41.44764,50.288312 -6.412733,1.97303 -13.149101,2.87777 -19.855655,2.63999 z m -5.270996,-1.88015 c -9.893501,-3.62791 -19.697246,-7.73858 -28.264836,-13.97718 -2.457789,-1.46056 -10.320504,-6.88206 -4.344774,-1.62811 9.12353,8.32048 20.869249,13.37651 32.883916,15.79462 z M 83.784724,38.512515 c -5.970039,-2.215663 5.161903,-4.581849 7.503686,-4.101666 4.895328,0.488849 9.23913,-0.431451 11.19877,-4.965154 4.36281,-3.845716 7.09818,2.725305 10.41237,4.71466 4.73364,3.41497 -1.07388,4.95614 -4.05294,3.184481 3.10211,-1.97717 -0.0295,-7.147274 -3.10235,-7.486699 -5.917478,-1.177942 -0.55671,7.03565 -2.0438,6.238805 -6.777601,-0.739155 -13.195742,2.604002 -19.915736,2.415573 z M 40.904768,16.903935 c 4.250373,-4.932691 11.562367,-6.266568 17.837547,-7.0326938 2.619834,-0.3192835 12.001105,-0.3690233 4.533353,0.6079698 -4.039241,1.023043 -1.174498,6.327671 -6.455952,5.005924 -5.29267,0.514432 -10.601779,1.303078 -15.914948,1.4188 z"
         id="path3329" /><path
         style="fill:#c2a3cc;stroke-width:0.0689019"
         d="M 64.595542,125.63447 C 49.169598,125.36096 33.474191,118.40309 23.260281,107.22096 7.9254843,91.899971 2.6494401,67.597681 9.7550925,47.11695 13.103779,37.202942 19.052705,28.07245 27.055383,21.335344 c 5.857477,1.224835 11.93262,0.662757 17.792387,-0.326273 1.028578,2.811133 0.04006,9.326091 4.770619,7.750294 6.053621,0.33464 12.612966,-0.513846 18.181091,2.282016 6.409043,4.426214 -1.382539,9.784283 -6.273951,9.872499 -3.314683,0.993796 -7.544942,2.97278 -2.644299,5.478037 3.897084,4.143676 8.42578,6.452462 13.372299,2.520299 7.060539,-2.634766 14.687333,-1.165211 21.4262,1.644977 4.819767,1.748392 10.390471,2.16985 14.487711,5.468032 2.68059,0.469513 7.80521,-5.482552 8.70987,-2.003292 0.95162,-3.096296 5.40839,4.711449 6.37691,7.094319 0.89228,5.630765 -2.87456,10.646955 -4.44608,15.843514 -2.995,6.57097 -14.00856,-1.15707 -7.46456,-5.717922 2.69985,-1.770216 8.58983,-7.034625 6.31525,-8.861793 -3.97607,4.690375 -10.32062,8.413419 -11.12366,15.058948 1.6099,2.572648 7.04841,7.549788 9.80514,3.860965 3.21834,-2.426088 8.30599,-12.839526 9.03004,-9.39476 -1.76948,19.334286 -13.63836,37.302336 -30.71671,46.494706 -9.169468,4.99081 -19.609904,7.52647 -30.058098,7.23456 z m -5.378205,-1.6769 c -9.956024,-3.74809 -19.956018,-7.7177 -28.581639,-14.07648 -2.40908,-1.44829 -10.382883,-6.91849 -4.685308,-1.85639 9.157992,8.41895 21.129786,13.63916 33.266947,15.93287 z M 22.993291,104.54023 c -2.329759,-2.91935 -4.931558,-7.779341 -6.671623,-9.687576 0.797473,3.979459 3.779629,7.598806 6.671623,9.687576 z m 18.05121,-87.638945 c 1.356855,-1.937309 4.641432,-4.633671 3.439816,-0.182532 -1.139481,0.133031 -2.292828,0.185744 -3.439816,0.182532 z"
         id="path3327" /><path
         style="fill:#c19dc9;stroke-width:0.0689019"
         d="m 64.078778,125.60568 c -4.635272,-0.0399 -10.799709,-1.20467 -14.086347,-2.24799 -3.397511,-0.9311 -7.545038,-2.38779 -10.167125,-4.0121 -0.492451,-0.10643 -3.128145,-1.36905 -4.498855,-2.3731 -0.528154,-0.43224 -1.880992,-1.0761 -2.827747,-1.85577 -1.046664,-1.05189 -1.620115,-0.72385 -2.595334,-2.04866 -1.375521,-0.47783 -3.218262,-2.57845 -4.061897,-3.23527 -0.943019,-1.05607 -2.759967,-2.41919 -4.303491,-4.38584 -0.643956,-1.0108 -1.732006,-1.51952 -2.005813,-2.69818 -1.139722,-0.22663 -1.558748,-2.67379 -1.982825,-2.3249 C 17.447562,99.931622 16.125804,98.412183 15.5901,97.381054 15.279008,96.404611 14.419056,96.149915 14.284992,94.734415 13.852059,95.170233 13.006294,92.60634 12.492505,91.729223 11.551349,89.539075 11.21054,89.223873 10.416236,86.807736 3.2814443,68.530837 6.4831125,46.187349 18.521991,30.399775 c 2.052521,-2.652154 3.875081,-4.64585 6.326099,-7.137471 1.749121,-2.287944 3.116393,-1.760524 5.955093,-1.384906 4.448374,1.111334 10.604263,-1.330345 14.099179,-0.251872 0.886177,2.846632 0.277568,8.497991 4.713104,7.173078 6.039675,0.334743 12.604696,-0.486779 18.149688,2.27612 6.35987,4.331325 -1.65868,9.872109 -6.614737,9.918162 -2.895058,1.004389 -7.384838,2.617046 -2.807103,4.964651 3.668616,3.260713 7.865047,7.439853 12.50022,3.502907 6.912791,-2.886807 14.75644,-2.253318 21.519449,0.718634 5.284511,1.931032 11.250037,2.582781 15.902277,5.806989 2.77155,0.03239 8.13067,-4.955305 8.73422,-2.156492 1.04567,-2.562296 4.83552,4.583126 5.9943,6.577458 1.66033,5.525752 -2.49255,10.419347 -3.75211,15.600905 -1.15519,4.97676 -8.88897,4.176082 -9.83125,-0.42137 -0.24072,-5.566254 7.41928,-6.475462 8.75419,-11.399913 0.13703,-4.757561 -6.21236,4.74834 -8.47113,6.375105 -4.9425,4.234002 -3.04049,10.625961 3.23671,11.768757 3.84457,1.295537 6.61681,-5.005388 9.55319,-7.102174 1.64695,-1.835505 3.55055,-6.550983 2.18486,-1.501217 -1.90971,13.614946 -8.27628,27.230704 -18.49095,36.446984 -0.6386,0.3035 -2.67135,2.43185 -2.80558,2.2311 -1.31447,1.13236 -1.12756,0.8556 -1.91563,1.55568 -0.55833,0.45285 -0.73473,0.50565 -1.19786,0.79205 -0.498357,0.61664 -1.657794,0.97837 -1.990223,1.47479 -1.912475,1.09818 -2.844445,1.67473 -4.60139,2.68753 -8.829462,4.55809 -19.333104,7.13751 -29.587829,6.69042 z m -4.780805,-1.63839 C 49.629187,120.3149 39.825029,116.5229 31.40626,110.36503 c -2.303759,-1.2546 -6.630073,-4.59927 -7.805505,-4.54314 1.330539,1.53384 2.454688,2.34027 4.038442,3.91044 2.325335,1.54726 2.86346,2.45796 5.045865,3.70874 7.982862,5.15185 17.211883,8.88838 26.612911,10.52622 z M 22.883786,104.36917 c -1.944631,-2.03154 -5.700449,-9.83657 -6.432732,-8.97617 0.605871,3.571636 4.552345,8.01361 6.432732,8.97617 z M 94.43007,58.428565 c 2.162515,-0.145249 8.18076,-0.124362 3.205383,-1.842859 -7.041706,-3.380468 -14.971208,-4.3238 -22.663893,-5.104598 -2.794156,-0.94326 -7.638649,2.670042 -2.245592,3.30356 6.864617,2.737884 14.323245,3.974856 21.704102,3.643897 z M 55.121529,41.890378 c 6.78207,-1.688114 -2.744081,-5.479247 -4.497441,-5.111561 1.438829,1.400064 2.402339,4.986993 4.497441,5.111561 z M 40.927735,16.829096 c 1.645488,-1.41453 4.528345,-4.597762 3.512554,-0.111543 -1.168317,0.0632 -2.343821,0.237618 -3.512554,0.111543 z"
         id="path3325" /><path
         style="fill:#bca0cb;stroke-width:0.0689019"
         d="m 64.078778,124.08666 c -7.33399,0.0777 -13.766738,-3.86041 -20.376364,-6.51923 C 36.829067,114.49372 30.915309,109.73461 24.423298,105.97909 21.400321,103.65938 17.828548,95.267533 16.44058,95.360245 14.525786,93.640807 10.814919,84.983665 9.6460878,80.201825 6.6439519,69.305691 7.0816593,57.658696 10.181602,46.842254 c -0.2500215,0.09593 0.404302,-1.574229 0.252922,-1.026683 0.111521,-1.938615 0.850124,-1.023037 0.583137,-2.123358 0.849866,-1.564355 2.563384,-6.267902 4.384771,-8.547641 1.760884,-3.240687 4.277458,-6.313809 6.476668,-8.750717 1.273571,-1.605173 3.967785,-3.972256 4.901729,-4.782362 5.48133,0.364837 11.456085,0.815694 17.022171,-0.477092 3.214479,-0.180859 0.341752,8.018463 4.168609,7.646263 6.516503,0.306137 13.477223,-0.52084 19.555994,2.148182 6.324438,3.622815 -0.394647,10.012513 -5.515915,9.756301 -3.772556,1.056477 -8.586133,3.169288 -2.914844,5.934852 3.336573,2.805348 7.130804,6.617872 11.217525,3.052012 7.030684,-3.0907 15.115016,-2.56306 22.048611,0.507105 5.281923,1.934865 11.25029,2.582391 15.90227,5.806989 2.77156,0.03239 8.13068,-4.955305 8.73423,-2.156492 1.04567,-2.562296 4.83552,4.583126 5.9943,6.577458 1.66033,5.525752 -2.49255,10.419347 -3.75211,15.600905 -1.15519,4.97676 -8.88897,4.176082 -9.83125,-0.42137 -0.24072,-5.566254 7.41928,-6.475462 8.75419,-11.399913 0.13703,-4.757561 -6.21236,4.74834 -8.47113,6.375105 -4.9425,4.234002 -3.04049,10.625961 3.23671,11.768757 3.67288,1.501887 6.28996,-4.73739 9.11141,-6.606791 1.6641,-1.587719 3.66686,-8.424413 2.99755,-1.230042 -2.44725,18.089677 -13.75191,34.702578 -29.747888,43.510028 4.27498,-2.54218 7.812758,-5.16539 11.541548,-8.55584 1.33476,-1.24771 5.347,-5.6126 1.73191,-1.98523 -11.709079,11.2553 -28.125834,17.57335 -44.485942,16.62398 z M 94.43007,58.428565 c 2.162515,-0.145249 8.18076,-0.124362 3.205383,-1.842859 -7.041706,-3.380468 -14.971208,-4.3238 -22.663893,-5.104598 -2.794156,-0.94326 -7.638649,2.670042 -2.245592,3.30356 6.863847,2.737932 14.324149,3.973613 21.704102,3.643897 z M 55.121529,41.890378 c 6.78207,-1.688114 -2.744081,-5.479247 -4.497441,-5.111561 1.43978,1.372231 2.402126,4.995074 4.497441,5.111561 z M 40.927735,16.829096 c 1.645488,-1.41453 4.528345,-4.597762 3.512554,-0.111543 -1.168323,0.06327 -2.343818,0.237576 -3.512554,0.111543 z"
         id="path3323" /><path
         style="fill:#ba9eca;stroke-width:0.0689019"
         d="m 64.078778,124.08666 c -7.075863,0.10548 -13.292898,-3.63869 -19.671496,-6.1968 -7.155648,-3.08312 -13.271518,-8.0088 -19.974811,-11.90457 -3.3348,-3.15805 -5.50138,-8.346226 -8.161216,-11.322866 0.392637,2.736685 -3.398668,-5.415099 -4.227227,-7.390036 -5.5138923,-13.20786 -5.761822,-28.288182 -1.39595,-41.851809 -0.631379,0.560818 0.753745,-1.026472 0.376228,-1.776853 0.787189,0.09103 0.191186,-0.896084 0.989454,-2.253811 2.62003,-5.272458 5.507308,-10.587813 9.796383,-14.692503 -0.986355,0.186173 3.902111,-4.060856 4.501819,-4.675432 0.700293,-0.757512 6.389897,0.287055 9.016876,0.01335 3.828316,0.504359 11.138981,-3.120996 9.98235,2.551669 0.890136,2.897812 1.056118,4.57558 2.722734,7.383509 1.978194,3.93976 4.495593,8.366286 7.644106,11.121338 1.522663,2.341507 3.88273,4.10309 5.933698,5.623255 2.032767,1.636406 4.519183,2.895118 6.758787,4.015938 12.043823,6.457537 26.717072,7.355547 39.679227,3.313155 1.95611,-0.211029 5.26557,-1.969111 7.80226,-3.127483 1.88205,1.326482 0.61066,6.30261 2.12366,8.867279 -0.96016,1.723968 -2.44937,2.499697 -2.95836,3.233427 -1.32777,0.786926 -2.19535,2.363826 -4.55401,4.453289 -0.73343,0.804747 -2.89701,3.758995 -3.53814,5.735863 -1.06201,3.529521 0.32878,4.388709 2.94164,5.626179 1.33999,0.583459 3.827,2.61701 4.83148,1.858215 3.1195,-2.371597 6.21023,-5.700776 8.67428,-8.303114 3.10165,-5.149614 1.1931,3.769446 0.40956,6.071049 -3.58832,15.792972 -14.38561,29.684302 -28.490632,37.544932 5.542812,-3.38214 11.014992,-7.32944 15.028692,-12.37727 -11.681477,12.42721 -29.086478,19.45975 -46.241392,18.4601 z"
         id="path3321" /><path
         style="fill:#b092c4;stroke-width:0.0689019"
         d="m 64.802248,124.08937 c -7.312026,0.31404 -13.739137,-3.5143 -20.294814,-6.1635 -7.272871,-3.10773 -13.487136,-8.10533 -20.260209,-12.10397 -3.145569,-3.17547 -5.472582,-8.388661 -7.973473,-11.237318 0.611811,3.041464 -2.613003,-3.929417 -3.360982,-5.408147 -7.8285348,-16.954496 -6.8741513,-37.541358 2.355251,-53.760853 -1.390635,2.427807 -2.404841,4.043731 -0.473656,0.626248 1.860281,-1.406497 5.039321,-9.564 7.388794,-6.341509 6.287175,0.378043 12.603407,-0.904355 18.923312,-0.789851 2.828816,0.13384 6.783157,-1.366229 6.849254,2.959927 1.37673,4.459751 6.226714,8.733861 7.406956,12.085673 -5.295022,3.534811 -11.808117,3.377041 -17.735043,4.891319 -7.206589,2.012927 -10.755628,11.312649 -6.527434,17.556907 2.249114,5.407279 3.199025,12.007211 8.552841,15.383629 2.907058,4.473275 11.450191,4.274928 11.807316,-1.90134 -0.796656,-5.479628 -6.263297,-8.753787 -8.120642,-13.882857 -3.19971,-8.022327 7.294025,-4.400916 11.265041,-3.207084 3.934636,-1.591478 3.502905,-8.343913 8.77808,-9.572414 4.615168,-3.511108 9.547659,3.439112 14.820825,3.446712 9.706318,2.625543 20.178449,2.454985 29.771125,-0.587731 3.45125,4.359345 -3.32399,8.571499 -5.91523,11.65892 -5.06445,3.342713 -7.746062,8.510549 -8.492051,14.423397 -3.048954,4.66173 1.976297,12.883131 7.216701,8.742802 4.86086,-2.015594 9.37291,-4.787885 13.5665,-7.95043 4.06303,3.847005 8.22968,1.937322 9.31491,-1.700849 -3.36281,12.913929 -11.12274,24.501179 -21.82862,32.451749 4.55574,-3.56246 8.77304,-7.65055 12.14795,-12.35409 -2.18992,2.84127 -5.16096,5.72088 -7.47145,7.97544 -4.3841,3.63997 -9.806983,7.39413 -15.371117,9.75752 -8.246199,3.65746 -17.328558,5.36429 -26.340135,5.0017 z"
         id="path3319" /><path
         style="fill:#b08ec1;stroke-width:0.0689019"
         d="m 63.665366,124.01912 c -4.900305,0.13723 -9.253394,-1.96257 -13.647135,-3.73035 -4.014394,-1.70835 -8.407506,-3.58799 -12.221377,-5.84969 0.418831,0.0737 -2.237757,-1.19755 -2.754053,-1.89974 -1.14385,-0.58302 -3.073886,-1.90457 -4.656255,-2.87667 -0.525831,-0.47309 -1.52851,-1.05983 -2.994473,-1.94293 -2.923132,-1.1652 -4.873959,-3.67289 -6.526884,-6.3986 -1.077692,-1.14083 -3.448426,-4.245721 -4.378945,-5.45161 C 5.7847872,78.742207 4.6380515,55.938185 13.999716,38.054538 c 1.258458,-3.180512 3.567804,-6.421747 5.497124,-8.837861 0.701158,-2.129602 4.304405,2.453947 7.237107,0.551811 6.632736,-0.592362 13.290522,-0.853332 19.947103,-0.96729 -0.161778,2.520884 6.86309,9.681152 1.003026,7.058301 -6.08158,-1.042136 -11.525335,-4.710515 -17.743541,-4.888439 -4.523864,0.47045 -5.306862,6.752231 -2.247426,9.463734 5.840958,1.770091 -5.208329,8.441475 0.349976,7.9114 8.21529,-4.076929 17.463591,-4.74748 26.351017,-6.319107 3.137628,3.507903 -6.606982,4.673697 -9.475459,5.479458 -5.949282,0.257651 -12.987014,2.354916 -14.986925,8.67785 -2.290042,5.603332 1.771505,10.664293 3.176974,15.878236 1.26377,4.941746 4.545793,8.791336 8.767405,11.535055 3.427956,3.426248 10.855995,0.234877 9.493453,-4.916511 -1.734109,-4.886622 -6.383157,-8.164002 -8.174017,-13.100577 -2.624604,-7.413004 7.135663,-4.145095 10.725117,-2.809714 5.031141,0.04221 3.372144,-7.971908 8.711195,-9.007388 4.073391,-4.197873 8.088211,0.09176 8.557944,4.527522 3.060239,4.640836 -1.870382,8.414094 -6.404259,8.070605 -5.805801,0.899756 -11.529538,-0.599676 -17.148176,-1.830475 -2.921394,1.427042 4.963974,3.448431 6.588461,4.85665 4.334793,2.3818 0.0556,8.808647 4.533435,11.273386 5.781644,4.032902 14.232678,4.213686 19.76159,-0.371511 3.03667,-2.126714 5.724286,-4.885213 9.505988,-5.677449 3.788784,-2.010728 4.361096,-6.941697 7.651524,-9.560921 1.084668,-2.549997 8.016548,-3.764792 5.071088,-6.62249 -1.177506,-1.351996 5.91397,-1.149776 7.37909,-2.342669 2.93102,5.258239 -4.45518,9.263621 -7.34879,12.789615 -5.44521,3.113586 -6.214023,9.252774 -7.680414,14.718396 -2.017383,3.808714 2.518139,11.18649 6.805592,7.722686 5.206142,-2.041802 9.997112,-4.992605 14.481962,-8.306373 3.5016,1.85731 7.34356,4.47316 8.77606,-1.135765 0.90294,-0.777489 -1.68202,6.150769 -2.43653,7.993636 -0.90604,2.474442 -2.80159,5.230973 -3.6335,7.015393 -0.9392,0.908561 -1.80552,3.630278 -2.94944,4.007428 -0.58362,0.87108 -1.04465,1.06885 -1.42311,1.9552 -1.85434,1.90397 -3.19921,3.52966 -5.13481,5.24776 -2.87474,2.8888 -7.0014,5.92315 -10.919259,8.16213 -9.922929,5.7268 -21.543828,8.41782 -33.000925,7.76287 z m 17.29438,-28.553606 c 2.36918,-2.485107 -2.377776,-8.728503 -6.454033,-6.699953 -3.830226,0.713756 -7.249321,2.964715 -10.292692,5.233175 5.477908,1.291474 11.128958,1.747162 16.746725,1.466778 z M 20.429417,48.17958 c 1.486183,-2.276168 -2.718543,-9.497617 -1.593531,-3.626068 0.333921,2.519337 1.94654,10.700451 1.593366,4.411516 l 1.72e-4,-0.785459 z"
         id="path3317" /><path
         style="fill:#a98cc0;stroke-width:0.0689019"
         d="M 66.008031,121.6066 C 50.43645,121.04047 35.294633,114.07643 24.848425,102.64742 23.594063,101.61547 22.702955,100.30231 21.64889,98.904205 9.9938748,84.456342 6.0800857,64.313311 10.954891,46.403049 c 0.01195,-0.867825 0.631652,-1.74955 0.196036,-1.730134 0.69927,-0.522321 0.778391,-2.172415 1.260324,-3.263439 0.909727,-1.646923 2.268164,-5.011122 3.553554,-7.266722 0.813786,-2.092583 4.322886,-5.182215 3.545282,-4.997235 1.151287,-1.356247 5.061751,2.307358 8.069719,0.555034 6.340436,-0.548946 12.703228,-0.771751 19.064574,-0.890118 0.95623,2.670313 2.252657,5.222278 3.65461,7.672817 -6.506775,-1.11268 -12.447394,-4.339405 -18.922453,-5.51629 -4.543804,-0.986455 -7.232487,5.050448 -4.546911,8.35375 2.78554,2.200578 3.203351,4.412887 0.336454,6.762868 -3.1867,5.80889 5.487948,-0.344034 7.832587,-0.39855 6.304179,-1.867347 12.892188,-2.393714 19.329722,-3.615538 4.000004,2.676765 -4.417964,3.783315 -6.165017,4.784041 -5.599306,1.284087 -12.435163,0.803998 -16.324279,5.864434 -3.122508,3.812874 -3.443198,9.580274 -0.767951,13.689901 2.175882,5.123612 2.966326,11.435824 7.861225,14.825737 2.974824,3.91591 9.971375,5.728045 12.328677,0.197481 1.259249,-3.731389 -1.921322,-6.19319 -3.341952,-8.674273 -2.16938,-2.915294 -6.341501,-7.112767 -4.725643,-11.145752 4.20416,-3.353388 9.722492,3.688031 13.642257,0.125042 0.532793,-4.508378 4.297391,-7.451154 8.105388,-9.345354 2.563249,-1.638893 6.110667,1.733611 5.614486,4.579224 2.425205,3.373509 1.756259,8.714283 -3.186313,8.919508 -6.602427,1.618307 -13.333793,0.04346 -19.792477,-1.35457 -2.366859,2.35988 7.340364,3.406594 8.462327,6.846711 0.06891,4.274437 0.364385,9.509219 5.369767,10.822232 5.485251,2.445827 12.327479,2.116889 17.035964,-1.836467 3.383132,-3.067767 7.465012,-4.860445 11.376257,-6.978205 2.303936,-3.172573 3.833367,-6.942767 7.048844,-9.420121 1.456848,-1.958941 7.630371,-3.560689 3.336461,-5.953635 3.30464,-0.305668 10.88396,-4.300947 8.26676,2.332987 -3.08154,5.288491 -8.556822,8.527019 -12.380481,13.171975 -1.361777,4.844432 -4.28845,10.247444 -2.829354,15.270403 2.17748,5.743763 7.229265,2.47848 10.954735,0.583964 4.63375,-0.799005 8.18994,-8.254451 12.8185,-5.136905 3.29212,3.432859 5.22944,-0.62165 6.59857,-3.002475 -1.60801,5.574661 -3.44037,11.344361 -7.03169,15.723961 -2.90364,4.203634 -6.58129,7.872614 -10.27892,11.118944 -11.21149,9.19053 -25.721574,14.22196 -40.316499,13.52832 z M 81.290103,95.454634 c 1.774893,-3.746589 -3.393052,-8.754652 -7.652288,-6.533902 -2.99496,0.797763 -8.228709,3.394982 -8.898061,5.219078 5.42328,1.213849 11.005168,1.60162 16.550349,1.314824 z M 20.493805,45.268556 c 0.359777,-3.123278 -3.314822,-4.35682 -1.62967,-0.426008 0.330891,2.257431 1.83522,10.404964 1.61674,4.194521 0.01437,-1.255944 0.04507,-2.512675 0.01293,-3.768513 z"
         id="path3315" /><path
         style="fill:#a789bd;stroke-width:0.0689019"
         d="M 64.940052,121.54352 C 41.380109,120.47331 19.612174,103.86971 12.167279,81.533855 6.683966,65.643181 8.048934,47.110847 16.900413,32.726197 c 1.845447,-2.395714 2.806429,-4.456662 1.618275,-0.784475 -1.670466,16.99019 5.24585,34.261096 17.15526,46.204385 1.949826,2.874268 4.308309,5.945706 7.955296,6.698848 13.416052,9.352434 30.806591,13.047093 46.799701,9.282868 3.710128,-0.45866 6.770605,-3.65564 9.397402,0.773107 3.625653,4.508009 6.927813,-1.141314 10.347913,-2.780208 3.64662,-1.601998 7.67703,-0.560263 9.43792,-5.238602 2.61736,-3.354091 1.64954,1.675145 0.28096,4.804274 -1.47674,3.215278 -3.64723,5.704095 -6.1145,8.859956 -11.6134,14.03686 -30.023025,22.0459 -48.240549,21.01708 l -0.597885,-0.02 z"
         id="path3313" /><path
         style="fill:#9e81bb;stroke-width:0.0689019"
         d="M 65.077855,121.53716 C 41.941916,120.48284 20.361216,104.55711 12.60799,82.709911 6.4349972,65.916286 7.8934992,45.866356 18.13322,30.956209 c 0.93187,0.473007 -0.516476,7.129222 0.262366,10.040428 1.053607,14.040186 7.511423,27.506875 17.474909,37.408633 2.091606,4.830779 7.215483,5.93359 11.134649,8.625554 14.753275,9.105333 33.479957,10.926511 49.85618,5.471466 3.178696,3.553645 7.701446,6.12359 10.986016,1.199149 2.32437,-2.9606 6.46177,-2.091076 9.02658,-3.491251 0.97708,-2.073556 5.99177,-6.608945 4.3878,-1.652923 -3.75804,9.267529 -11.0866,16.736265 -19.09195,22.527745 -10.741646,7.54339 -24.006225,11.19699 -37.091915,10.45215 z"
         id="path3311" /><path
         style="fill:#9b7eb8;stroke-width:0.0689019"
         d="M 64.733346,121.50688 C 42.053689,120.36914 21.050338,104.89264 12.989117,83.715822 6.8086285,67.958683 7.6992889,49.446136 15.788871,34.552512 c 0.43115,-0.512624 0.963862,-1.655963 1.396241,-2.109233 1.444944,-2.875882 1.597135,-1.045029 1.068859,1.61283 -0.878859,3.48264 2.426138,8.895166 -2.847185,9.352118 -3.81897,2.508919 -1.567633,8.578489 -1.890326,12.617869 0.80929,8.679845 3.539335,17.207082 8.051024,24.669393 -2.413769,-6.275929 -2.046868,-13.090177 -1.13313,-19.621045 0.598833,-2.033823 -0.73969,-11.937924 0.983122,-5.551408 2.982167,8.699201 7.958882,16.435531 14.437765,22.926026 1.678311,2.94081 3.961188,5.545817 7.4496,6.296173 6.206126,4.362965 13.26811,7.414268 20.604726,9.343493 -4.701043,3.504244 -10.102698,6.418912 -13.456965,11.392302 9.713818,4.21409 20.933489,5.43381 31.422156,3.66931 -1.870892,-4.32518 -0.365195,-9.09244 -0.267896,-13.594117 5.180143,-0.448038 10.31973,-1.489102 15.282507,-3.01302 3.001393,3.510527 7.599071,6.166135 10.790591,1.331257 2.41079,-1.533365 4.04999,-3.060576 6.76041,-2.958366 3.05883,0.635252 4.24723,-3.202004 5.98449,-4.967065 2.87486,0.606552 -0.0741,3.461186 -0.0914,4.75892 -10.04968,19.420681 -31.934394,31.806391 -53.742596,30.863991 l -1.02905,-0.0251 -0.828072,-0.0399 z"
         id="path3309" /><path
         style="fill:#9073b3;stroke-width:0.0689019"
         d="M 65.629071,121.53765 C 42.662105,120.71754 21.143629,105.19462 13.021671,83.715822 7.0339011,68.413979 7.5643904,50.387976 15.26138,35.796724 9.1521428,57.214919 17.124745,81.502207 34.140895,95.70419 c 15.821092,13.83362 39.206194,18.04658 58.877691,10.68774 8.817264,-3.20796 16.778204,-8.600069 23.200624,-15.42361 6.63422,-0.17757 0.54374,5.12323 -1.10257,7.864604 -11.61043,14.941366 -30.498885,23.742046 -49.487569,22.704726 z"
         id="path3307" /><path
         style="fill:#8b6eb0;stroke-width:0.0689019"
         d="m 84.956057,111.71111 c -5.235524,-1.58527 0.394773,-3.86532 3.083327,-3.68695 10.743764,-2.8599 20.669096,-8.800243 28.172246,-17.016043 5.0991,-0.772474 2.04959,5.392077 -1.43306,4.788214 -9.86448,4.368149 -17.488584,12.982029 -28.035508,15.899599 -0.592383,0.0733 -1.193536,0.0824 -1.787005,0.0152 z M 40.410971,110.00615 C 32.228985,107.62896 28.827301,98.938936 25.801696,91.811923 24.686573,88.958007 22.017562,83.317851 22.21194,82.017451 c 6.463149,10.227801 16.024308,18.524819 27.190707,23.231079 0.277907,4.34482 -5.819252,4.91411 -8.991676,4.75762 z M 11.111297,46.233183 c 0.92246,-2.658934 2.620144,-8.416834 3.614618,-8.742401 -1.023123,2.917722 0.154348,7.530187 -3.614618,8.742401 z"
         id="path3305" /></g></g></svg>
